<?xml version="1.0" encoding="utf-8"?>
<!-- Generator: Adobe Illustrator 24.2.3, SVG Export Plug-In . SVG Version: 6.00 Build 0)  -->
<svg version="1.1" id="Layer_1" xmlns="http://www.w3.org/2000/svg" xmlns:xlink="http://www.w3.org/1999/xlink" x="0px" y="0px"
	 viewBox="0 0 235.3 166.7" style="enable-background:new 0 0 235.3 166.7;" xml:space="preserve">
<style type="text/css">
	.st0{fill:url(#SVGID_1_);}
	.st1{fill:#045876;}
</style>
<linearGradient id="SVGID_1_" gradientUnits="userSpaceOnUse" x1="28.3723" y1="63.2386" x2="113.5431" y2="63.2386">
	<stop  offset="0.1304" style="stop-color:#045876"/>
	<stop  offset="0.2521" style="stop-color:#055C7A"/>
	<stop  offset="0.4368" style="stop-color:#076785"/>
	<stop  offset="0.6614" style="stop-color:#067C9A"/>
	<stop  offset="0.9154" style="stop-color:#009DBB"/>
	<stop  offset="1" style="stop-color:#00ABCA"/>
</linearGradient>
<path class="st0" d="M64.1,97.3c-2.3-2.2-4.6-4.4-6.8-6.6c3.4-3.9,3.6-4.1,6.6-7.4c5.4,5.4,5.5,5.5,7,7C67.8,93.6,66.3,95,64.1,97.3
	z M78.1,98.6c-2.1-2.5-2.6-3.1-5.6-6.5c-3.7,3.7-3.7,3.7-6.7,6.8c2.9,2.8,2.9,2.8,5.8,5.9C72.4,103.9,73.3,103.1,78.1,98.6z
	 M80,81.1c-2.5-2.9-3.4-3.8-6.8-7.5c-1.5,1.6-2.1,2.2-7.5,7.9c4,4,4,4,7,7.1C76,85.3,76,85.3,80,81.1z M86.9,90
	c-2-2.8-2.5-3.5-5.5-7.1c-2.8,2.9-3.9,4-7.3,7.4c2.6,2.9,2.9,3.2,5.6,6.6C83,93.9,83,93.9,86.9,90z M88.9,71.2
	c-2.7-3.4-3-3.7-6.7-7.9C79.1,67,79,67.1,75,71.6c3.1,3.4,3.3,3.6,6.8,7.6C84.9,75.8,85.1,75.6,88.9,71.2z M88.7,88.2
	c3.1-3.2,3.3-3.4,7-7.5c-2-3-2.5-3.7-5.4-7.6c-2.7,3.2-3.5,4-7.1,7.9C85.8,84.2,86.1,84.6,88.7,88.2z M96.6,61
	c-2.5-3.1-3.2-3.8-6.6-7.6c-2.3,3.1-2.9,3.9-6.2,7.9c2.9,3.3,3.3,3.8,6.6,7.9C93.2,65.9,93.8,65,96.6,61z M103.5,70.8
	c-2.1-3.4-2.4-3.8-5.4-7.9c-2.4,3.5-2.7,3.9-6.1,8.2c2.5,3.3,2.8,3.7,5.4,7.7C100.2,75.5,100.4,75.1,103.5,70.8z M102.5,51.2
	c-2.5-2.9-3.2-3.6-6.6-7.1c-1.6,2.9-2,3.5-4.5,7.4c2.9,3.1,3.2,3.5,6.6,7.5C100.1,55.7,100.3,55.3,102.5,51.2z M109.4,60.7
	c-2-3.2-2.5-3.8-5.5-7.6c-1.6,3.2-2,3.8-4.5,7.9c2.5,3.3,2.8,3.8,5.4,7.9C107,65.5,107.3,64.7,109.4,60.7z M105.8,42.2
	c-2.6-2.7-3.2-3.3-6.6-6.5c-0.7,2.7-0.8,2.9-2.5,6.7c2.9,2.9,3.2,3.2,6.6,7C104.7,46.3,104.7,46.1,105.8,42.2z M110.3,58.7
	c1.4-3.3,1.4-3.6,2.5-7.7c-2-3-2.6-3.6-5.5-7.1c-0.7,2.9-0.8,3.2-2.5,7.3C107.4,54.3,107.6,54.7,110.3,58.7z M99.6,34.2
	c2.9,2.6,3.2,2.9,6.6,6.3c0.4-2.8,0.4-3.2,0.2-6.5c-2.6-2.4-3.2-2.9-6.6-5.7C100,30.6,100,31,99.6,34.2z M113.2,49.1
	c0.4-3.1,0.4-3.5,0.3-7.2c-2.1-2.8-2.6-3.3-5.5-6.5c0.2,2.7,0.2,3.1-0.2,6.7C110.2,45,110.5,45.4,113.2,49.1z M106.2,32.5
	c-0.5-2.5-0.7-2.8-2-5.7c-2.6-2.1-3.2-2.6-6.6-4.9c1.1,2,1.2,2.3,2,5C102.5,29.1,102.8,29.5,106.2,32.5z M111.2,33.9
	c-2-2.5-2.3-2.7-5.5-5.8c1.1,2.3,1.2,2.7,2,5.9c2.5,2.6,2.6,2.7,5.5,6.4C112.7,37.5,112.5,37.2,111.2,33.9z M36.8,31.5
	c1.2-2.1,1.3-2.2,3.5-4.7c-2.7,1.9-2.8,2-6.1,4.8c-1.8,2.1-1.9,2.3-3.6,5.4C32.9,34.6,33.2,34.4,36.8,31.5z M28.5,44.5
	c2.4-2.6,3-3.2,6.3-6.2c0.3-2.4,0.3-2.5,1.4-5.5c-2.7,2.3-3.1,2.6-6.2,5.6C29,40.8,29,41,28.5,44.5z M29.1,52.8
	c2.4-2.8,3-3.5,6.3-6.9c-0.6-2.6-0.7-2.8-0.8-6.2c-2.8,2.6-3,2.9-6.3,6.4C28.4,48.7,28.4,49,29.1,52.8z M38.9,54.2
	c-1.5-2.9-1.6-3.1-3-6.7c-2.8,2.9-3.1,3.2-6.4,7c0.9,2.9,1.1,3.2,2.9,7.2C34.9,58.6,35.6,57.9,38.9,54.2z M44.8,63.2
	c-2.3-3.1-2.5-3.5-4.9-7.2c-2.9,3.1-3.1,3.4-6.4,7.5c1.7,3,2.1,3.6,4.8,7.6C40.8,67.8,41.4,67.1,44.8,63.2z M52.5,72.6
	c-2.9-3.3-3.1-3.5-6.3-7.6c-2.9,3.3-3.2,3.7-6.4,7.9c2.4,3.1,3,3.8,6.3,7.6C48.4,77.4,49.1,76.7,52.5,72.6z M61.4,82
	c-3.2-3.2-3.3-3.4-7.2-7.5c-3,3.4-3.2,3.7-6.5,7.9c2.7,2.9,3.5,3.6,7.1,7.2C57.2,86.6,57.9,85.9,61.4,82z M48.8,21.7
	c-2.9,1.5-3.3,1.7-6.9,3.9c-1.7,1.8-1.8,1.9-3.5,4.6c2.7-2,3.4-2.4,6.9-4.7C46.4,23.9,46.6,23.7,48.8,21.7z M44.7,26.6
	c-2.9,1.9-3.2,2.1-6.9,4.8c-0.9,2.1-0.9,2.3-1.4,5.4c2.7-2.3,3.4-2.8,6.9-5.5C43.6,29.2,43.6,29.1,44.7,26.6z M44.1,38
	c-0.7-2.4-0.7-2.5-0.9-5.5c-3,2.3-3.3,2.5-6.9,5.7c0,2.4,0.1,2.6,0.8,6.1C39.9,41.7,40.5,41.1,44.1,38z M47.7,45.6
	c-1.6-2.6-1.6-2.8-3-6.1c-3,2.6-3.3,2.8-7,6.4c0.9,2.6,1.1,2.9,3,6.6C43.4,49.7,44.1,48.9,47.7,45.6z M53.7,53.8
	c-2.3-2.9-2.6-3.2-5-6.7c-3.1,2.9-3.3,3.2-7.1,7c1.7,2.8,2.2,3.4,4.9,7.1C49.2,58.3,50,57.5,53.7,53.8z M61.6,62.7
	c-2.9-3.1-3.1-3.4-6.5-7.2c-3.2,3.2-3.3,3.4-7.2,7.5c2.4,2.9,3,3.6,6.4,7.5C57,67.5,57.9,66.6,61.6,62.7z M70.7,72.1
	c-3.7-3.7-3.7-3.7-7.4-7.6c-3.3,3.4-3.4,3.6-7.4,7.9c2.8,3,3.5,3.8,7.2,7.6C65.7,77.3,67.2,75.8,70.7,72.1z M33.8,30.1"/>
<polygon class="st1" points="80,107.3 71.6,127.3 62.8,106.4 56.3,100.8 69.1,130.4 74.1,130.4 86.8,100.7 "/>
<path class="st1" d="M90.9,130.5v-29.7h3.9v29.7H90.9z"/>
<path class="st1" d="M103.2,130.5v-29.7h14.7c3.9,0,6.6,0.5,8.1,1.5c1.5,1,2.2,2.8,2.2,5.3v4.5c0,2.6-0.7,4.4-2.2,5.4
	s-4.2,1.5-8.1,1.5h-10.9v11.5H103.2z M124.2,112.1v-4.4c0-1.4-0.4-2.4-1.2-2.9s-2.5-0.8-5.1-0.8h-10.8v11.9h10.8
	c2.6,0,4.3-0.3,5.1-0.8C123.8,114.5,124.2,113.5,124.2,112.1z"/>
<path class="st1" d="M134.7,130.5v-29.7h24.5v3.1h-20.6v9.7h20v3h-20v10.7h20.6v3.1H134.7z"/>
<path class="st1" d="M165.3,130.5v-29.7h15.8c3.9,0,6.6,0.5,8.1,1.5c1.5,1,2.2,2.8,2.2,5.3v4.5c0,1.6-0.4,2.8-1.1,3.7
	s-1.9,1.4-3.4,1.7c1.7,0.3,2.8,0.9,3.5,1.8c0.7,0.9,1,2.3,1,4.1v7.1h-4v-6.1c0-2.1-0.4-3.6-1.2-4.3c-0.8-0.8-2.3-1.1-4.6-1.1h-12.4
	v11.6H165.3z M180.3,104h-11.1v11.9h11.1c2.9,0,4.8-0.3,5.7-0.9c0.9-0.6,1.3-1.7,1.3-3.3v-3.5c0-1.6-0.4-2.7-1.3-3.3
	S183.3,104,180.3,104z"/>
</svg>
